<svg width="1000" height="1000" xmlns="http://www.w3.org/2000/svg">

 <g>
  <title>background</title>
  <rect fill="none" id="canvas_background" height="1002" width="1002" y="-1" x="-1"/>
 </g>
 <g>
  <title>Layer 1</title>
  <path stroke="null" id="svg_1" d="m251.889561,512.162009l-8.009552,15.322988l8.009552,15.310798c51.469403,98.398693 147.151976,159.532172 249.758435,159.532172s198.277954,-61.133479 249.758435,-159.532172l8.009552,-15.310798l-8.009552,-15.322988c-51.469403,-98.386503 -147.151976,-159.519982 -249.758435,-159.519982s-198.289032,61.121289 -249.758435,159.519982zm442.475124,15.310798c-43.083192,70.385784 -115.501506,113.429117 -192.716688,113.429117s-149.644575,-43.031143 -192.716688,-113.429117c43.083192,-70.385784 115.501506,-113.441308 192.716688,-113.441308s149.633497,43.055523 192.716688,113.441308z"/>
  <circle stroke="null" id="svg_2" r="53.203003" cy="542.98395" cx="494.146979"/>
  <path stroke="null" id="svg_3" d="m974.125967,357.066085l-476.983787,-255.90508l-476.973182,255.90508l25.451012,46.508149l81.05087,-43.483912l0,493.748743l740.953204,0l0,-493.748743l81.05087,43.483912l25.451012,-46.508149zm-159.917195,443.88033l-634.10137,0l0,-469.512842l317.034778,-170.102848l317.066592,170.102848l0,469.512842z"/>
 </g>
</svg>