<svg width="1000" height="1000" xmlns="http://www.w3.org/2000/svg" clip-rule="evenodd">
 <defs>
  <style type="text/css">.fil0 {fill:black}</style>
 </defs>
 <g>
  <title>background</title>
  <rect fill="none" id="canvas_background" height="1002" width="1002" y="-1" x="-1"/>
 </g>
 <g>
  <title>Layer 1</title>
  <g stroke="null" id="svg_1">
   <path stroke="null" id="svg_2" d="m164.918143,700.75876c-6.157655,-158.086147 129.94265,-207.514236 235.0799,-316.204501c105.177584,-108.658057 -12.355644,-340.864866 -12.355644,-340.864866c160.529254,51.285401 297.194234,325.770189 197.972635,444.627352c0,0 64.964603,-7.397036 102.071867,-51.865139c37.120709,-44.457367 0,-170.453905 0,-170.453905c0,0 206.832667,244.628247 114.723293,441.470997c-38.088725,81.388868 -106.575829,142.46541 -184.917869,180.287991c28.448903,-35.364059 32.025183,-86.799762 -11.226292,-156.379138c0,0 2.998159,89.118717 -33.194868,73.476509c-56.481021,-24.434911 57.274256,-152.063306 -155.353059,-233.64542c27.346441,44.972691 28.986689,170.346546 -58.793503,168.60733c0,-57.426336 -48.104998,-71.11461 -111.604132,-69.869246c78.409264,40.968199 59.613627,102.420498 32.778084,159.331511c-14.385787,30.468488 -7.045002,55.826687 13.49844,75.290876c-72.991065,-34.193846 -124.658898,-100.831585 -128.678852,-203.81035z" class="fil0"/>
  </g>
  <text id="svg_3" font-family="'Helvetica Neue', Helvetica, Arial-Unicode, Arial, Sans-serif" font-weight="bold" font-size="5px" fill="#000000" y="100015" x="0">Created by Afebaulia</text>
  <text id="svg_4" font-family="'Helvetica Neue', Helvetica, Arial-Unicode, Arial, Sans-serif" font-weight="bold" font-size="5px" fill="#000000" y="100020" x="0">from the Noun Project</text>
 </g>
</svg>