<svg width="1000" height="1000" xmlns="http://www.w3.org/2000/svg">

 <g>
  <title>background</title>
  <rect fill="none" id="canvas_background" height="1002" width="1002" y="-1" x="-1"/>
 </g>
 <g>
  <title>Layer 1</title>
  <g stroke="null" id="svg_1">
   <path id="svg_3" fill="#000000"/>
   <g stroke="null" id="svg_12">
    <path id="svg_2" fill="#000000" d="m507.720683,64.858792l-402.939122,253.44885l0,597.471832l148.22849,0l0,-594.398664l509.425044,0l0,594.398664l148.154296,0l0,-597.471832l-402.868708,-253.44885zm-1.073711,112.57307a36.42987,41.805855 0 0 1 37.471943,41.837181a36.42987,41.805855 0 1 1 -72.84742,0a36.42987,41.805855 0 0 1 35.375477,-41.837181z"/>
    <path id="svg_7" fill="#000000" d="m725.369258,533.877642l-435.348386,0l0,42.503864l435.348386,0l0,-42.503864z"/>
    <path id="svg_8" fill="#000000" d="m290.020872,448.868307l0,42.503864l435.348386,0l0,-42.503864l-435.348386,0z"/>
    <path id="svg_9" fill="#000000" d="m725.369258,363.858972l-435.348386,0l0,42.505471l435.348386,0l0,-42.505471z"/>
   </g>
  </g>
 </g>
</svg>