<svg width="1000" height="1000" xmlns="http://www.w3.org/2000/svg">

 <g>
  <title>background</title>
  <rect fill="none" id="canvas_background" height="1002" width="1002" y="-1" x="-1"/>
 </g>
 <g>
  <title>Layer 1</title>
  <g stroke="null" id="svg_9">
   <polygon stroke="null" id="svg_1" points="533.5433349609375,401.2450256347656 399.13067626953125,401.2450256347656 339.7544860839844,516.1636962890625 386.4122009277344,538.7397766113281 431.3693542480469,451.72772216796875 477.38067626953125,451.72772216796875 399.13067626953125,603.1757507324219 310.91668701171875,603.1757507324219 310.91668701171875,653.658447265625 431.3693542480469,653.658447265625 467.41668701171875,583.8913269042969 548.4212036132812,740.670166015625 595.078857421875,718.0944213867188 496.5776672363281,527.4517517089844 522.8071899414062,476.67633056640625 557.7901000976562,527.4517517089844 676.0833740234375,527.4517517089844 676.0833740234375,476.96905517578125 585.7099609375,476.96905517578125 "/>
   <path stroke="null" id="svg_2" d="m519.583362,350.762374c0,27.836146 23.401968,50.482674 52.16667,50.482674s52.16667,-22.646527 52.16667,-50.482674s-23.401968,-50.482674 -52.16667,-50.482674s-52.16667,22.646527 -52.16667,50.482674z"/>
   <path stroke="null" id="svg_3" d="m216.849745,259.732017l-55.32797,-53.55202c-88.683339,85.820545 -137.521775,199.911387 -137.521775,321.271734s48.838436,235.451189 137.521775,321.271734l55.32797,-53.55202c-73.899304,-71.503659 -114.59974,-166.582726 -114.59974,-267.719714s40.700436,-196.216056 114.59974,-267.719714z"/>
   <path stroke="null" id="svg_4" d="m770.15031,269.828552c73.899304,71.503659 114.59974,166.582726 114.59974,267.719714s-40.700436,196.216056 -114.59974,267.719714l55.32797,53.55202c88.683339,-85.820545 137.521775,-199.911387 137.521775,-321.271734s-48.838436,-235.451189 -137.521775,-321.271734l-55.32797,53.55202z"/>
   <path stroke="null" id="svg_5" d="m253.73158,295.423268c-132.200774,127.943288 -132.200774,336.11364 0,464.056928l36.881835,-35.69125c-111.866207,-108.265142 -111.866207,-284.409286 0,-392.674428l-36.881835,-35.69125z"/>
   <path stroke="null" id="svg_6" d="m733.268475,295.423268l-36.881835,35.69125c111.866207,108.265142 111.866207,284.409286 0,392.674428l36.881835,35.69125c132.200774,-127.943288 132.200774,-336.11364 0,-464.056928z"/>
  </g>
 </g>
</svg>